<?xml version="1.0" encoding="utf-8"?>
<!-- Generator: Adobe Illustrator 21.0.0, SVG Export Plug-In . SVG Version: 6.00 Build 0)  -->
<svg version="1.1" id="Layer_1" xmlns="http://www.w3.org/2000/svg" xmlns:xlink="http://www.w3.org/1999/xlink" x="0px" y="0px"
	 viewBox="0 0 1885 923" style="enable-background:new 0 0 1885 923;" xml:space="preserve">
<style type="text/css">
	.st0{fill:none;stroke:#000000;stroke-width:15;stroke-miterlimit:10;}
</style>
<image style="overflow:visible;enable-background:new    ;" width="1501" height="754" xlink:href="map.png"  transform="matrix(1.2495 0 0 1.2495 4.7439 -9.5647)">
</image>
<path class="st0" d="M301.3,214.7L301.3,214.7c-7.1-7.1-18.6-7.1-25.7,0l0,0c-6.4,6.4-7.1,18.4-1.7,25.7v0c7,10.1,22,10.1,29,0l0,0
	C308.4,233.1,307.7,221.1,301.3,214.7z"/>
<path class="st0" d="M1425.6,793.4L1425.6,793.4c-7.1-7.1-18.6-7.1-25.7,0l0,0c-6.4,6.4-7.1,18.4-1.7,25.7v0c7,10.1,22,10.1,29,0v0
	C1432.7,811.9,1432,799.8,1425.6,793.4z"/>
<path class="st0" d="M1681.9,337L1681.9,337c-7.1-7.1-18.6-7.1-25.7,0l0,0c-6.4,6.4-7.1,18.4-1.7,25.7v0c7,10.1,22,10.1,29,0v0
	C1689.1,355.4,1688.3,343.4,1681.9,337z"/>
<path class="st0" d="M878.9,317.7L878.9,317.7c-7.1-7.1-18.6-7.1-25.7,0l0,0c-6.4,6.4-7.1,18.4-1.7,25.7v0c7,10.1,22,10.1,29,0v0
	C886,336.1,885.3,324.1,878.9,317.7z"/>
<path class="st0" d="M521.4,466.8L521.4,466.8c-7.1-7.1-18.6-7.1-25.7,0l0,0c-6.4,6.4-7.1,18.4-1.7,25.7v0c7,10.1,22,10.1,29,0v0
	C528.5,485.3,527.8,473.2,521.4,466.8z"/>
<path class="st0" d="M257.4,608.3L257.4,608.3c-7.1-7.1-18.6-7.1-25.7,0l0,0c-6.4,6.4-7.1,18.4-1.7,25.7h0c7,10.1,22,10.1,29,0l0,0
	C264.5,626.8,263.8,614.7,257.4,608.3z"/>
</svg>
